<?xml version="1.0" standalone="no"?>
<!DOCTYPE svg PUBLIC "-//W3C//DTD SVG 20010904//EN"
 "http://www.w3.org/TR/2001/REC-SVG-20010904/DTD/svg10.dtd">
<svg version="1.0" xmlns="http://www.w3.org/2000/svg"
 width="2000.000000pt" height="2000.000000pt" viewBox="0 0 2000.000000 2000.000000"
 preserveAspectRatio="xMidYMid meet">
<metadata>
Created by potrace 1.14, written by Peter Selinger 2001-2017
</metadata>
<g transform="translate(0.000000,2000.000000) scale(0.100000,-0.100000)"
fill="#000000" stroke="none">
<path d="M15045 17064 c-16 -8 -43 -23 -60 -33 -16 -11 -46 -22 -65 -26 -45
-9 -105 -40 -239 -121 -138 -84 -145 -88 -151 -94 -14 -15 -111 -72 -115 -68
-3 3 2 24 10 48 9 26 15 78 15 133 0 77 -3 96 -22 123 -33 48 -86 58 -140 27
-24 -15 -118 -138 -118 -156 0 -3 -19 -36 -42 -73 -44 -73 -120 -172 -228
-294 -36 -41 -100 -115 -140 -165 -41 -49 -85 -101 -98 -115 -13 -14 -49 -56
-80 -95 -66 -81 -108 -128 -212 -238 -115 -122 -174 -205 -209 -300 -12 -30
-31 -28 -31 3 0 42 -54 164 -90 201 -31 33 -43 39 -78 39 -35 0 -48 -6 -81
-39 -46 -46 -63 -93 -87 -249 -47 -303 -94 -476 -171 -627 -31 -61 -150 -245
-159 -245 -4 0 -32 24 -63 53 -32 29 -84 70 -117 91 -32 22 -97 67 -144 101
-153 113 -312 180 -610 260 -145 38 -209 60 -335 111 -123 50 -323 100 -470
118 -91 11 -230 21 -430 31 -55 3 -120 7 -145 10 -88 11 -106 13 -185 20 -44
4 -89 9 -100 11 -43 9 -485 11 -790 4 -292 -6 -330 -9 -435 -33 -63 -14 -137
-31 -165 -37 -109 -24 -212 -61 -345 -123 -41 -19 -124 -56 -184 -82 -60 -26
-157 -72 -215 -102 -118 -61 -126 -66 -261 -146 -103 -61 -210 -95 -210 -67 0
5 -18 28 -41 52 -45 48 -102 132 -173 258 -106 185 -130 221 -182 272 -61 59
-70 65 -107 72 -57 10 -89 -41 -103 -171 -4 -35 -9 -63 -13 -63 -3 0 -22 22
-41 48 -19 26 -37 49 -40 52 -25 24 -183 253 -236 342 -99 167 -121 197 -185
261 -48 46 -65 57 -92 57 -33 0 -77 -33 -77 -58 0 -6 -4 -13 -9 -17 -11 -6
-119 55 -164 94 -55 48 -178 135 -270 192 -251 155 -316 191 -394 216 l-84 28
-37 -20 c-42 -23 -54 -54 -77 -205 -26 -163 -29 -337 -10 -510 10 -85 17 -211
16 -280 -1 -115 2 -138 37 -280 22 -85 38 -158 36 -161 -2 -4 -30 -10 -61 -14
-67 -8 -83 -18 -83 -51 0 -12 -4 -26 -10 -29 -18 -11 -11 -108 15 -203 71
-267 250 -611 375 -725 l60 -54 -16 -79 c-64 -329 -58 -628 16 -839 29 -81 30
-95 4 -95 -27 0 -178 -62 -239 -98 -105 -62 -163 -113 -191 -170 -25 -49 -26
-59 -20 -130 13 -145 91 -406 161 -542 16 -31 16 -35 0 -71 -11 -23 -28 -42
-46 -49 -16 -7 -29 -17 -29 -22 0 -5 -21 -6 -47 -4 -130 14 -163 16 -163 9 0
-15 76 -89 103 -101 l28 -12 -29 -43 c-36 -52 -114 -202 -146 -282 l-24 -60
-79 -6 c-92 -7 -167 -36 -212 -83 l-32 -33 70 -12 c38 -7 97 -11 130 -10 33 1
63 0 66 -3 3 -3 -2 -38 -12 -77 -12 -51 -23 -76 -38 -83 -106 -57 -225 -164
-225 -203 0 -21 130 -1 208 32 11 4 13 -18 7 -123 -4 -71 -9 -132 -11 -136 -3
-5 -13 -8 -23 -8 -29 0 -323 -77 -501 -132 -185 -57 -441 -151 -555 -203 -41
-19 -77 -35 -79 -35 -9 0 -198 -108 -261 -149 -120 -78 -186 -131 -293 -240
-73 -73 -182 -204 -182 -217 0 -4 -7 -16 -17 -26 -9 -10 -14 -18 -11 -18 3 0
37 32 74 71 38 39 96 92 129 117 33 26 62 50 63 54 2 4 7 8 11 8 4 0 52 30
107 66 192 127 476 257 789 361 301 101 747 224 761 211 2 -3 9 -43 15 -89 22
-182 68 -348 130 -471 l29 -58 -32 -27 c-18 -16 -52 -46 -77 -68 -127 -110
-301 -303 -444 -495 -48 -63 -90 -120 -94 -125 -5 -6 -36 -52 -70 -102 -96
-139 -86 -135 57 27 241 273 414 440 652 628 l66 52 66 -84 c36 -46 92 -110
126 -142 67 -65 66 -58 30 -159 -22 -64 -26 -71 -103 -235 -40 -86 -97 -230
-97 -247 0 -7 25 20 55 62 17 22 32 42 35 45 3 3 37 50 74 105 38 55 86 117
107 137 21 20 48 56 60 80 12 24 26 46 31 49 5 3 45 -13 89 -36 75 -39 83 -46
116 -106 121 -219 242 -333 367 -346 66 -7 122 9 187 53 38 25 54 31 60 23 11
-18 18 -101 24 -294 4 -93 8 -215 11 -270 9 -193 6 -501 -6 -590 -10 -83 -35
-214 -61 -325 -43 -181 -178 -533 -271 -710 -130 -248 -204 -356 -306 -451
-97 -91 -122 -131 -123 -198 -2 -51 14 -88 53 -122 10 -9 18 -26 18 -37 0 -39
27 -53 99 -51 42 1 106 -8 176 -25 93 -22 131 -26 240 -24 77 0 173 9 235 20
113 20 290 35 290 23 0 -9 -13 -20 -105 -94 -153 -123 -311 -216 -387 -227
-115 -18 -35 -41 104 -31 138 11 295 92 445 231 39 36 73 66 76 66 3 0 1 -16
-5 -36 -5 -20 -7 -46 -4 -57 6 -24 -23 -114 -70 -216 -55 -120 -139 -235 -257
-354 -62 -61 -122 -125 -134 -141 -31 -41 -30 -96 2 -134 32 -38 63 -50 160
-61 108 -12 659 -6 765 8 47 6 103 14 125 17 22 3 65 9 95 14 30 5 69 11 85
14 100 15 353 79 490 122 126 41 352 133 440 179 99 52 122 60 140 45 10 -8
11 -19 4 -43 -58 -197 -74 -304 -66 -461 9 -176 36 -263 111 -357 19 -24 44
-55 54 -68 28 -37 91 -33 162 9 126 74 334 273 390 373 l33 59 38 -116 c74
-225 259 -564 439 -805 125 -167 368 -410 525 -526 22 -16 46 -35 53 -42 73
-71 393 -271 497 -309 38 -15 81 -39 95 -54 36 -39 60 -49 97 -38 60 16 75 64
64 208 -4 52 -6 97 -4 99 1 2 20 -7 41 -21 20 -14 57 -35 82 -48 l44 -23 42
22 c35 19 47 34 72 89 88 195 236 707 311 1079 55 269 72 398 77 593 3 107 7
201 9 208 8 23 38 12 104 -36 36 -26 108 -74 160 -107 81 -51 101 -59 153 -63
50 -4 64 -1 90 18 28 21 30 21 49 5 24 -22 94 -15 115 12 53 66 294 660 310
763 l7 43 86 -89 c214 -221 378 -339 594 -428 49 -20 46 -9 -11 37 -57 45 -96
79 -183 160 -36 34 -101 94 -145 134 -142 128 -156 142 -152 152 1 5 30 -5 63
-21 118 -58 357 -146 520 -191 358 -100 563 -123 700 -77 55 18 74 21 101 12
19 -5 36 -7 39 -3 15 25 -100 250 -148 290 -9 7 -17 19 -17 26 0 27 82 -11
167 -77 178 -140 496 -314 683 -373 112 -36 283 -45 380 -21 104 26 200 59
200 68 0 4 -33 8 -73 8 -142 0 -415 89 -694 226 -174 85 -210 112 -132 100 49
-8 433 -8 504 -1 360 40 614 100 825 197 227 105 504 253 560 301 45 38 80
101 80 145 0 63 -23 85 -149 143 -138 64 -322 170 -361 209 -3 3 -25 21 -50
40 -66 50 -252 231 -355 344 -32 35 -236 278 -265 316 -19 25 -43 54 -52 64
-10 10 -15 22 -13 26 11 17 124 -2 209 -36 216 -86 382 -124 543 -124 97 0
207 11 256 26 29 9 19 24 -15 24 -52 0 -329 71 -508 130 -61 20 -61 19 55 50
103 28 230 77 275 105 80 51 126 121 118 177 -3 20 -9 23 -51 23 -43 0 -49 3
-68 34 -26 42 -27 43 -127 124 -100 81 -160 140 -279 277 -50 58 -107 121
-127 139 -52 50 -47 66 12 36 152 -76 377 -72 547 10 74 36 169 102 191 133
31 45 18 123 -28 163 -13 11 -69 51 -125 89 -92 63 -241 193 -332 289 -88 94
-331 384 -403 481 -69 93 -221 467 -204 502 3 7 31 45 61 83 61 78 140 230
179 345 48 146 59 234 60 515 1 281 -3 315 -80 668 -26 118 -26 119 -6 140 50
55 65 105 67 234 l2 122 39 44 c44 51 87 131 105 197 7 25 13 104 13 180 0
120 -4 149 -32 255 -25 92 -32 141 -32 210 0 50 -6 143 -14 206 -13 103 -75
437 -110 594 l-13 60 34 45 c102 137 143 327 150 710 4 221 2 272 -15 382 -23
150 -49 211 -94 227 -45 16 -73 4 -112 -47 -20 -25 -36 -40 -36 -34 0 6 10 51
22 99 21 81 22 112 23 388 0 269 -10 577 -20 608 -2 7 -6 41 -10 77 -15 159
-85 510 -111 562 -29 56 -89 73 -149 42z m31 -5184 c7 0 17 -15 23 -32 10 -33
36 -183 46 -267 6 -54 12 -89 27 -171 20 -113 16 -439 -8 -590 -15 -94 -39
-166 -92 -280 -34 -74 -35 -75 -43 -45 -5 17 -12 44 -14 60 -3 17 -10 46 -15
65 -12 44 -46 273 -55 365 -13 132 -13 230 0 340 7 61 16 162 19 225 4 63 9
140 12 170 3 30 7 89 9 130 1 41 3 76 4 77 1 1 17 -9 37 -22 20 -14 43 -25 50
-25z"/>
<path d="M4607 9356 c-3 -8 0 -19 7 -25 11 -9 14 -6 14 14 0 27 -13 34 -21 11z"/>
</g>
</svg>
